<svg xmlns="http://www.w3.org/2000/svg" viewBox="0 0 64 64">
  <defs>
    <linearGradient id="skyGradDev" x1="0%" y1="0%" x2="0%" y2="100%">
      <stop offset="0%" style="stop-color:#ff6b6b;stop-opacity:1" />
      <stop offset="100%" style="stop-color:#c92a2a;stop-opacity:1" />
    </linearGradient>
  </defs>
  <!-- Background circle -->
  <circle cx="32" cy="32" r="30" fill="url(#skyGradDev)"/>
  <!-- Back mountain range -->
  <path d="M4 46 L16 28 L26 40 L36 22 L48 38 L60 30 L60 54 L4 54 Z" fill="#ffffff" opacity="0.35"/>
  <!-- Front mountain range -->
  <path d="M4 54 L14 36 L22 46 L30 30 L40 44 L50 34 L60 46 L60 58 L4 58 Z" fill="#ffffff"/>
  <!-- Snow caps on front peaks -->
  <path d="M12 40 L14 36 L16 40 Z" fill="#c92a2a" opacity="0.2"/>
  <path d="M28 34 L30 30 L32 34 Z" fill="#c92a2a" opacity="0.2"/>
  <path d="M48 38 L50 34 L52 38 Z" fill="#c92a2a" opacity="0.2"/>
  <!-- Sun/moon -->
  <circle cx="46" cy="20" r="5" fill="#ffffff" opacity="0.95"/>
  <!-- Stars -->
  <circle cx="14" cy="18" r="1.2" fill="#ffffff" opacity="0.8"/>
  <circle cx="22" cy="12" r="1" fill="#ffffff" opacity="0.7"/>
  <circle cx="32" cy="16" r="0.8" fill="#ffffff" opacity="0.6"/>
</svg>
